<mxfile host="app.diagrams.net" modified="2023-11-02T04:59:03.732Z" agent="Mozilla/5.0 (Windows NT 10.0; Win64; x64) AppleWebKit/537.36 (KHTML, like Gecko) Chrome/118.0.0.0 Safari/537.36" etag="6sGUE-MQbOsD8Tx_2tQA" version="22.0.8" type="device">
  <diagram name="第 1 页" id="d7XxBCtwZomkPrQx2y8K">
    <mxGraphModel dx="1501" dy="1956" grid="1" gridSize="10" guides="1" tooltips="1" connect="1" arrows="1" fold="1" page="1" pageScale="1" pageWidth="827" pageHeight="1169" math="0" shadow="0">
      <root>
        <mxCell id="0" />
        <mxCell id="1" parent="0" />
        <mxCell id="FHojmxslOPqscSksrp7K-201" value="" style="rounded=0;whiteSpace=wrap;html=1;" vertex="1" parent="1">
          <mxGeometry x="-340" y="-650" width="2110" height="1890" as="geometry" />
        </mxCell>
        <mxCell id="FHojmxslOPqscSksrp7K-1" value="&lt;font style=&quot;font-size: 20px;&quot;&gt;SRAM(32KB)&lt;br&gt;(預設為Read mode)&lt;br&gt;&lt;/font&gt;" style="rounded=0;whiteSpace=wrap;html=1;" vertex="1" parent="1">
          <mxGeometry x="430" y="90" width="340" height="260" as="geometry" />
        </mxCell>
        <mxCell id="FHojmxslOPqscSksrp7K-8" style="edgeStyle=orthogonalEdgeStyle;rounded=0;orthogonalLoop=1;jettySize=auto;html=1;exitX=0.5;exitY=0;exitDx=0;exitDy=0;entryX=0;entryY=0.5;entryDx=0;entryDy=0;" edge="1" parent="1" source="FHojmxslOPqscSksrp7K-2" target="FHojmxslOPqscSksrp7K-5">
          <mxGeometry relative="1" as="geometry">
            <mxPoint x="205" y="50" as="targetPoint" />
          </mxGeometry>
        </mxCell>
        <mxCell id="FHojmxslOPqscSksrp7K-49" style="edgeStyle=orthogonalEdgeStyle;rounded=0;orthogonalLoop=1;jettySize=auto;html=1;exitX=0.5;exitY=1;exitDx=0;exitDy=0;entryX=0.5;entryY=0;entryDx=0;entryDy=0;" edge="1" parent="1" source="FHojmxslOPqscSksrp7K-2" target="FHojmxslOPqscSksrp7K-48">
          <mxGeometry relative="1" as="geometry" />
        </mxCell>
        <mxCell id="FHojmxslOPqscSksrp7K-2" value="&lt;span style=&quot;font-size: 20px;&quot;&gt;Default&lt;br&gt;&lt;/span&gt;" style="rounded=0;whiteSpace=wrap;html=1;" vertex="1" parent="1">
          <mxGeometry x="120" y="110" width="170" height="140" as="geometry" />
        </mxCell>
        <mxCell id="FHojmxslOPqscSksrp7K-5" value="&lt;font style=&quot;font-size: 20px;&quot;&gt;if(DD8==1 &amp;amp;&amp;amp; !(CD5==0 &amp;amp;&amp;amp; CCLR#==1))&lt;/font&gt;" style="rhombus;whiteSpace=wrap;html=1;" vertex="1" parent="1">
          <mxGeometry x="357.5" y="-480" width="485" height="260" as="geometry" />
        </mxCell>
        <mxCell id="FHojmxslOPqscSksrp7K-10" value="" style="endArrow=classic;html=1;rounded=0;exitX=0.5;exitY=1;exitDx=0;exitDy=0;" edge="1" parent="1" source="FHojmxslOPqscSksrp7K-5">
          <mxGeometry width="50" height="50" relative="1" as="geometry">
            <mxPoint x="540" y="110" as="sourcePoint" />
            <mxPoint x="520" y="-80" as="targetPoint" />
          </mxGeometry>
        </mxCell>
        <mxCell id="FHojmxslOPqscSksrp7K-15" value="&lt;font style=&quot;font-size: 20px;&quot;&gt;true&lt;/font&gt;" style="edgeLabel;html=1;align=center;verticalAlign=middle;resizable=0;points=[];" vertex="1" connectable="0" parent="FHojmxslOPqscSksrp7K-10">
          <mxGeometry x="0.1" y="4" relative="1" as="geometry">
            <mxPoint x="2" y="-10" as="offset" />
          </mxGeometry>
        </mxCell>
        <mxCell id="FHojmxslOPqscSksrp7K-11" value="" style="endArrow=classic;html=1;rounded=0;exitX=0.5;exitY=1;exitDx=0;exitDy=0;" edge="1" parent="1" source="FHojmxslOPqscSksrp7K-5">
          <mxGeometry width="50" height="50" relative="1" as="geometry">
            <mxPoint x="610" y="-70" as="sourcePoint" />
            <mxPoint x="680" y="-80" as="targetPoint" />
          </mxGeometry>
        </mxCell>
        <mxCell id="FHojmxslOPqscSksrp7K-16" value="&lt;font style=&quot;font-size: 20px;&quot;&gt;false&lt;/font&gt;" style="edgeLabel;html=1;align=center;verticalAlign=middle;resizable=0;points=[];" vertex="1" connectable="0" parent="FHojmxslOPqscSksrp7K-11">
          <mxGeometry x="-0.26" y="-1" relative="1" as="geometry">
            <mxPoint x="11" y="17" as="offset" />
          </mxGeometry>
        </mxCell>
        <mxCell id="FHojmxslOPqscSksrp7K-17" value="" style="endArrow=classic;html=1;rounded=0;entryX=0.5;entryY=0;entryDx=0;entryDy=0;" edge="1" parent="1" target="FHojmxslOPqscSksrp7K-1">
          <mxGeometry width="50" height="50" relative="1" as="geometry">
            <mxPoint x="520" y="-80" as="sourcePoint" />
            <mxPoint x="600" y="40" as="targetPoint" />
            <Array as="points">
              <mxPoint x="520" />
              <mxPoint x="600" />
            </Array>
          </mxGeometry>
        </mxCell>
        <mxCell id="FHojmxslOPqscSksrp7K-18" value="&lt;font style=&quot;font-size: 20px;&quot;&gt;11111111&lt;/font&gt;" style="edgeLabel;html=1;align=center;verticalAlign=middle;resizable=0;points=[];" vertex="1" connectable="0" parent="FHojmxslOPqscSksrp7K-17">
          <mxGeometry x="-0.5905" y="-1" relative="1" as="geometry">
            <mxPoint y="-21" as="offset" />
          </mxGeometry>
        </mxCell>
        <mxCell id="FHojmxslOPqscSksrp7K-19" value="&lt;span style=&quot;font-size: 20px;&quot;&gt;Data&lt;/span&gt;" style="text;html=1;strokeColor=none;fillColor=none;align=center;verticalAlign=middle;whiteSpace=wrap;rounded=0;" vertex="1" parent="1">
          <mxGeometry x="570" y="90" width="60" height="30" as="geometry" />
        </mxCell>
        <mxCell id="FHojmxslOPqscSksrp7K-20" value="" style="endArrow=classic;html=1;rounded=0;entryX=0.5;entryY=0;entryDx=0;entryDy=0;" edge="1" parent="1" target="FHojmxslOPqscSksrp7K-19">
          <mxGeometry width="50" height="50" relative="1" as="geometry">
            <mxPoint x="680" y="-80" as="sourcePoint" />
            <mxPoint x="610" y="100" as="targetPoint" />
            <Array as="points">
              <mxPoint x="680" />
              <mxPoint x="600" />
            </Array>
          </mxGeometry>
        </mxCell>
        <mxCell id="FHojmxslOPqscSksrp7K-21" value="&lt;font style=&quot;font-size: 20px;&quot;&gt;00000000&lt;/font&gt;" style="edgeLabel;html=1;align=center;verticalAlign=middle;resizable=0;points=[];" vertex="1" connectable="0" parent="FHojmxslOPqscSksrp7K-20">
          <mxGeometry x="-0.5905" y="-1" relative="1" as="geometry">
            <mxPoint y="-21" as="offset" />
          </mxGeometry>
        </mxCell>
        <mxCell id="FHojmxslOPqscSksrp7K-22" value="&lt;font style=&quot;font-size: 20px;&quot;&gt;if(WE# == 0)&lt;/font&gt;" style="rhombus;whiteSpace=wrap;html=1;" vertex="1" parent="1">
          <mxGeometry x="510" y="10" width="180" height="60" as="geometry" />
        </mxCell>
        <mxCell id="FHojmxslOPqscSksrp7K-24" value="&lt;span style=&quot;font-size: 20px;&quot;&gt;如果DD8等於0，代表系統還在預設0~255地址的資料為零&lt;/span&gt;" style="text;html=1;strokeColor=none;fillColor=none;align=left;verticalAlign=middle;whiteSpace=wrap;rounded=0;" vertex="1" parent="1">
          <mxGeometry x="10" y="-340" width="190" height="120" as="geometry" />
        </mxCell>
        <mxCell id="FHojmxslOPqscSksrp7K-25" value="&lt;font style=&quot;font-size: 20px;&quot;&gt;if(DD8==0)&lt;/font&gt;" style="rhombus;whiteSpace=wrap;html=1;" vertex="1" parent="1">
          <mxGeometry x="-150" y="-160" width="150" height="90" as="geometry" />
        </mxCell>
        <mxCell id="FHojmxslOPqscSksrp7K-35" value="" style="endArrow=classic;html=1;rounded=0;exitX=0.5;exitY=0;exitDx=0;exitDy=0;entryX=1;entryY=0.5;entryDx=0;entryDy=0;" edge="1" parent="1" source="FHojmxslOPqscSksrp7K-2" target="FHojmxslOPqscSksrp7K-25">
          <mxGeometry width="50" height="50" relative="1" as="geometry">
            <mxPoint x="30" y="80" as="sourcePoint" />
            <mxPoint x="80" y="30" as="targetPoint" />
            <Array as="points">
              <mxPoint x="205" y="-115" />
            </Array>
          </mxGeometry>
        </mxCell>
        <mxCell id="FHojmxslOPqscSksrp7K-36" value="" style="endArrow=classic;html=1;rounded=0;exitX=0.5;exitY=1;exitDx=0;exitDy=0;" edge="1" parent="1" source="FHojmxslOPqscSksrp7K-25">
          <mxGeometry width="50" height="50" relative="1" as="geometry">
            <mxPoint x="30" y="80" as="sourcePoint" />
            <mxPoint x="10" as="targetPoint" />
          </mxGeometry>
        </mxCell>
        <mxCell id="FHojmxslOPqscSksrp7K-40" value="&lt;font style=&quot;font-size: 20px;&quot;&gt;False&lt;/font&gt;" style="edgeLabel;html=1;align=center;verticalAlign=middle;resizable=0;points=[];" vertex="1" connectable="0" parent="FHojmxslOPqscSksrp7K-36">
          <mxGeometry x="0.0697" y="-1" relative="1" as="geometry">
            <mxPoint y="-8" as="offset" />
          </mxGeometry>
        </mxCell>
        <mxCell id="FHojmxslOPqscSksrp7K-37" value="" style="endArrow=classic;html=1;rounded=0;exitX=0.5;exitY=1;exitDx=0;exitDy=0;" edge="1" parent="1" source="FHojmxslOPqscSksrp7K-25">
          <mxGeometry width="50" height="50" relative="1" as="geometry">
            <mxPoint x="-65" y="-60" as="sourcePoint" />
            <mxPoint x="-160" as="targetPoint" />
          </mxGeometry>
        </mxCell>
        <mxCell id="FHojmxslOPqscSksrp7K-39" value="&lt;font style=&quot;font-size: 20px;&quot;&gt;True&lt;/font&gt;" style="edgeLabel;html=1;align=center;verticalAlign=middle;resizable=0;points=[];" vertex="1" connectable="0" parent="FHojmxslOPqscSksrp7K-37">
          <mxGeometry x="-0.0144" y="5" relative="1" as="geometry">
            <mxPoint x="-6" y="-8" as="offset" />
          </mxGeometry>
        </mxCell>
        <mxCell id="FHojmxslOPqscSksrp7K-41" value="" style="endArrow=classic;html=1;rounded=0;entryX=0;entryY=0.5;entryDx=0;entryDy=0;" edge="1" parent="1" target="FHojmxslOPqscSksrp7K-2">
          <mxGeometry width="50" height="50" relative="1" as="geometry">
            <mxPoint x="-160" as="sourcePoint" />
            <mxPoint x="80" y="20" as="targetPoint" />
            <Array as="points">
              <mxPoint x="-160" y="180" />
            </Array>
          </mxGeometry>
        </mxCell>
        <mxCell id="FHojmxslOPqscSksrp7K-43" value="&lt;font style=&quot;font-size: 20px;&quot;&gt;Active&lt;/font&gt;" style="edgeLabel;html=1;align=center;verticalAlign=middle;resizable=0;points=[];" vertex="1" connectable="0" parent="FHojmxslOPqscSksrp7K-41">
          <mxGeometry x="-0.6348" y="-1" relative="1" as="geometry">
            <mxPoint as="offset" />
          </mxGeometry>
        </mxCell>
        <mxCell id="FHojmxslOPqscSksrp7K-42" value="" style="endArrow=classic;html=1;rounded=0;entryX=0;entryY=0.5;entryDx=0;entryDy=0;" edge="1" parent="1" target="FHojmxslOPqscSksrp7K-2">
          <mxGeometry width="50" height="50" relative="1" as="geometry">
            <mxPoint x="10" as="sourcePoint" />
            <mxPoint x="80" y="20" as="targetPoint" />
            <Array as="points">
              <mxPoint x="10" y="180" />
            </Array>
          </mxGeometry>
        </mxCell>
        <mxCell id="FHojmxslOPqscSksrp7K-45" value="&lt;font style=&quot;font-size: 20px;&quot;&gt;Inactive&lt;/font&gt;" style="edgeLabel;html=1;align=center;verticalAlign=middle;resizable=0;points=[];" vertex="1" connectable="0" parent="FHojmxslOPqscSksrp7K-42">
          <mxGeometry x="-0.4069" y="3" relative="1" as="geometry">
            <mxPoint as="offset" />
          </mxGeometry>
        </mxCell>
        <mxCell id="FHojmxslOPqscSksrp7K-47" value="&lt;font style=&quot;font-size: 12px;&quot;&gt;OE#&lt;/font&gt;" style="text;html=1;strokeColor=none;fillColor=none;align=center;verticalAlign=middle;whiteSpace=wrap;rounded=0;" vertex="1" parent="1">
          <mxGeometry x="110" y="165" width="60" height="30" as="geometry" />
        </mxCell>
        <mxCell id="FHojmxslOPqscSksrp7K-48" value="&lt;font style=&quot;font-size: 20px;&quot;&gt;if(DD8==0)&lt;/font&gt;" style="rhombus;whiteSpace=wrap;html=1;" vertex="1" parent="1">
          <mxGeometry x="130" y="300" width="150" height="80" as="geometry" />
        </mxCell>
        <mxCell id="FHojmxslOPqscSksrp7K-50" value="&lt;font style=&quot;font-size: 12px;&quot;&gt;address&lt;/font&gt;" style="text;html=1;strokeColor=none;fillColor=none;align=center;verticalAlign=middle;whiteSpace=wrap;rounded=0;" vertex="1" parent="1">
          <mxGeometry x="175" y="220" width="60" height="30" as="geometry" />
        </mxCell>
        <mxCell id="FHojmxslOPqscSksrp7K-51" value="" style="endArrow=classic;html=1;rounded=0;exitX=0.5;exitY=1;exitDx=0;exitDy=0;" edge="1" parent="1" source="FHojmxslOPqscSksrp7K-48">
          <mxGeometry width="50" height="50" relative="1" as="geometry">
            <mxPoint x="190" y="250" as="sourcePoint" />
            <mxPoint x="120" y="440" as="targetPoint" />
          </mxGeometry>
        </mxCell>
        <mxCell id="FHojmxslOPqscSksrp7K-53" value="&lt;font style=&quot;font-size: 20px;&quot;&gt;True&lt;/font&gt;" style="edgeLabel;html=1;align=center;verticalAlign=middle;resizable=0;points=[];" vertex="1" connectable="0" parent="FHojmxslOPqscSksrp7K-51">
          <mxGeometry x="-0.2693" relative="1" as="geometry">
            <mxPoint as="offset" />
          </mxGeometry>
        </mxCell>
        <mxCell id="FHojmxslOPqscSksrp7K-52" value="" style="endArrow=classic;html=1;rounded=0;exitX=0.5;exitY=1;exitDx=0;exitDy=0;" edge="1" parent="1" source="FHojmxslOPqscSksrp7K-48">
          <mxGeometry width="50" height="50" relative="1" as="geometry">
            <mxPoint x="215" y="390" as="sourcePoint" />
            <mxPoint x="290" y="440" as="targetPoint" />
          </mxGeometry>
        </mxCell>
        <mxCell id="FHojmxslOPqscSksrp7K-55" value="&lt;font style=&quot;font-size: 20px;&quot;&gt;False&lt;br&gt;&lt;/font&gt;" style="edgeLabel;html=1;align=center;verticalAlign=middle;resizable=0;points=[];" vertex="1" connectable="0" parent="FHojmxslOPqscSksrp7K-52">
          <mxGeometry x="-0.2065" y="2" relative="1" as="geometry">
            <mxPoint as="offset" />
          </mxGeometry>
        </mxCell>
        <mxCell id="FHojmxslOPqscSksrp7K-56" value="" style="endArrow=classic;html=1;rounded=0;entryX=0.25;entryY=1;entryDx=0;entryDy=0;" edge="1" parent="1" target="FHojmxslOPqscSksrp7K-1">
          <mxGeometry width="50" height="50" relative="1" as="geometry">
            <mxPoint x="120" y="520" as="sourcePoint" />
            <mxPoint x="260" y="490" as="targetPoint" />
            <Array as="points">
              <mxPoint x="515" y="520" />
            </Array>
          </mxGeometry>
        </mxCell>
        <mxCell id="FHojmxslOPqscSksrp7K-154" value="&lt;font style=&quot;font-size: 20px;&quot;&gt;8bit&lt;/font&gt;" style="edgeLabel;html=1;align=center;verticalAlign=middle;resizable=0;points=[];" vertex="1" connectable="0" parent="FHojmxslOPqscSksrp7K-56">
          <mxGeometry x="0.1327" y="-1" relative="1" as="geometry">
            <mxPoint x="-30" as="offset" />
          </mxGeometry>
        </mxCell>
        <mxCell id="FHojmxslOPqscSksrp7K-57" value="" style="endArrow=none;html=1;rounded=0;" edge="1" parent="1">
          <mxGeometry width="50" height="50" relative="1" as="geometry">
            <mxPoint x="120" y="440" as="sourcePoint" />
            <mxPoint x="120" y="520" as="targetPoint" />
          </mxGeometry>
        </mxCell>
        <mxCell id="FHojmxslOPqscSksrp7K-58" value="" style="endArrow=none;html=1;rounded=0;" edge="1" parent="1">
          <mxGeometry width="50" height="50" relative="1" as="geometry">
            <mxPoint x="290" y="440" as="sourcePoint" />
            <mxPoint x="290" y="520" as="targetPoint" />
          </mxGeometry>
        </mxCell>
        <mxCell id="FHojmxslOPqscSksrp7K-59" value="&lt;font style=&quot;font-size: 20px;&quot;&gt;8bit address&lt;/font&gt;" style="edgeLabel;html=1;align=center;verticalAlign=middle;resizable=0;points=[];" vertex="1" connectable="0" parent="1">
          <mxGeometry x="129.99522119593897" y="420.0039615087488" as="geometry">
            <mxPoint x="-9" y="58" as="offset" />
          </mxGeometry>
        </mxCell>
        <mxCell id="FHojmxslOPqscSksrp7K-60" value="&lt;span style=&quot;font-size: 20px;&quot;&gt;Hi-Z&lt;/span&gt;" style="edgeLabel;html=1;align=center;verticalAlign=middle;resizable=0;points=[];" vertex="1" connectable="0" parent="1">
          <mxGeometry x="299.99522119593894" y="420.0039615087488" as="geometry">
            <mxPoint x="-9" y="58" as="offset" />
          </mxGeometry>
        </mxCell>
        <mxCell id="FHojmxslOPqscSksrp7K-61" value="&lt;font style=&quot;font-size: 12px;&quot;&gt;address[7:4]&lt;/font&gt;" style="text;html=1;strokeColor=none;fillColor=none;align=center;verticalAlign=middle;whiteSpace=wrap;rounded=0;" vertex="1" parent="1">
          <mxGeometry x="490" y="320" width="60" height="30" as="geometry" />
        </mxCell>
        <mxCell id="FHojmxslOPqscSksrp7K-64" style="edgeStyle=orthogonalEdgeStyle;rounded=0;orthogonalLoop=1;jettySize=auto;html=1;exitX=0.5;exitY=0;exitDx=0;exitDy=0;entryX=0;entryY=0.75;entryDx=0;entryDy=0;" edge="1" parent="1" source="FHojmxslOPqscSksrp7K-62" target="FHojmxslOPqscSksrp7K-2">
          <mxGeometry relative="1" as="geometry">
            <mxPoint x="20" y="250" as="targetPoint" />
          </mxGeometry>
        </mxCell>
        <mxCell id="FHojmxslOPqscSksrp7K-95" style="edgeStyle=orthogonalEdgeStyle;rounded=0;orthogonalLoop=1;jettySize=auto;html=1;exitX=0.25;exitY=0;exitDx=0;exitDy=0;entryX=1;entryY=0.25;entryDx=0;entryDy=0;" edge="1" parent="1" source="FHojmxslOPqscSksrp7K-62" target="FHojmxslOPqscSksrp7K-65">
          <mxGeometry relative="1" as="geometry">
            <Array as="points">
              <mxPoint x="-197" y="-560" />
              <mxPoint x="1390" y="-560" />
              <mxPoint x="1390" y="-45" />
            </Array>
          </mxGeometry>
        </mxCell>
        <mxCell id="FHojmxslOPqscSksrp7K-185" style="edgeStyle=orthogonalEdgeStyle;rounded=0;orthogonalLoop=1;jettySize=auto;html=1;exitX=0.5;exitY=1;exitDx=0;exitDy=0;entryX=0.5;entryY=0;entryDx=0;entryDy=0;" edge="1" parent="1" source="FHojmxslOPqscSksrp7K-62" target="FHojmxslOPqscSksrp7K-184">
          <mxGeometry relative="1" as="geometry" />
        </mxCell>
        <mxCell id="FHojmxslOPqscSksrp7K-62" value="&lt;span style=&quot;font-size: 20px;&quot;&gt;CLK&lt;br&gt;&lt;/span&gt;" style="rounded=0;whiteSpace=wrap;html=1;" vertex="1" parent="1">
          <mxGeometry x="-240" y="550" width="170" height="140" as="geometry" />
        </mxCell>
        <mxCell id="FHojmxslOPqscSksrp7K-63" value="&lt;font style=&quot;font-size: 12px;&quot;&gt;clk&lt;/font&gt;" style="text;html=1;strokeColor=none;fillColor=none;align=center;verticalAlign=middle;whiteSpace=wrap;rounded=0;" vertex="1" parent="1">
          <mxGeometry x="110" y="200" width="60" height="30" as="geometry" />
        </mxCell>
        <mxCell id="FHojmxslOPqscSksrp7K-85" style="edgeStyle=orthogonalEdgeStyle;rounded=0;orthogonalLoop=1;jettySize=auto;html=1;exitX=0;exitY=0.25;exitDx=0;exitDy=0;entryX=1;entryY=0.5;entryDx=0;entryDy=0;" edge="1" parent="1" source="FHojmxslOPqscSksrp7K-65" target="FHojmxslOPqscSksrp7K-5">
          <mxGeometry relative="1" as="geometry">
            <Array as="points">
              <mxPoint x="843" y="-45" />
            </Array>
          </mxGeometry>
        </mxCell>
        <mxCell id="FHojmxslOPqscSksrp7K-148" style="edgeStyle=orthogonalEdgeStyle;rounded=0;orthogonalLoop=1;jettySize=auto;html=1;exitX=0.5;exitY=1;exitDx=0;exitDy=0;entryX=0.5;entryY=0;entryDx=0;entryDy=0;" edge="1" parent="1" source="FHojmxslOPqscSksrp7K-147" target="FHojmxslOPqscSksrp7K-146">
          <mxGeometry relative="1" as="geometry">
            <Array as="points">
              <mxPoint x="1125" y="110" />
              <mxPoint x="970" y="110" />
            </Array>
          </mxGeometry>
        </mxCell>
        <mxCell id="FHojmxslOPqscSksrp7K-152" value="&lt;span style=&quot;font-size: 16px;&quot;&gt;000_1bit&lt;/span&gt;" style="edgeLabel;html=1;align=center;verticalAlign=middle;resizable=0;points=[];" vertex="1" connectable="0" parent="FHojmxslOPqscSksrp7K-148">
          <mxGeometry x="0.3458" y="3" relative="1" as="geometry">
            <mxPoint as="offset" />
          </mxGeometry>
        </mxCell>
        <mxCell id="FHojmxslOPqscSksrp7K-167" style="edgeStyle=orthogonalEdgeStyle;rounded=0;orthogonalLoop=1;jettySize=auto;html=1;exitX=0;exitY=0.75;exitDx=0;exitDy=0;entryX=0.5;entryY=0;entryDx=0;entryDy=0;" edge="1" parent="1" source="FHojmxslOPqscSksrp7K-65" target="FHojmxslOPqscSksrp7K-166">
          <mxGeometry relative="1" as="geometry" />
        </mxCell>
        <mxCell id="FHojmxslOPqscSksrp7K-170" value="&lt;font style=&quot;font-size: 20px;&quot;&gt;4bit&lt;/font&gt;" style="edgeLabel;html=1;align=center;verticalAlign=middle;resizable=0;points=[];" vertex="1" connectable="0" parent="FHojmxslOPqscSksrp7K-167">
          <mxGeometry x="0.656" y="3" relative="1" as="geometry">
            <mxPoint as="offset" />
          </mxGeometry>
        </mxCell>
        <mxCell id="FHojmxslOPqscSksrp7K-65" value="&lt;span style=&quot;font-size: 20px;&quot;&gt;Clear&lt;br&gt;&lt;/span&gt;" style="rounded=0;whiteSpace=wrap;html=1;" vertex="1" parent="1">
          <mxGeometry x="1040" y="-80" width="170" height="140" as="geometry" />
        </mxCell>
        <mxCell id="FHojmxslOPqscSksrp7K-68" value="" style="endArrow=classic;html=1;rounded=0;entryX=0.5;entryY=0;entryDx=0;entryDy=0;" edge="1" parent="1" target="FHojmxslOPqscSksrp7K-69">
          <mxGeometry width="50" height="50" relative="1" as="geometry">
            <mxPoint x="280" y="-350" as="sourcePoint" />
            <mxPoint x="1120" y="-440" as="targetPoint" />
            <Array as="points">
              <mxPoint x="280" y="-520" />
              <mxPoint x="1125" y="-520" />
            </Array>
          </mxGeometry>
        </mxCell>
        <mxCell id="FHojmxslOPqscSksrp7K-70" value="" style="endArrow=classic;html=1;rounded=0;exitX=0.5;exitY=1;exitDx=0;exitDy=0;" edge="1" parent="1" source="FHojmxslOPqscSksrp7K-69">
          <mxGeometry width="50" height="50" relative="1" as="geometry">
            <mxPoint x="1105" y="-370" as="sourcePoint" />
            <mxPoint x="960" y="-200" as="targetPoint" />
          </mxGeometry>
        </mxCell>
        <mxCell id="FHojmxslOPqscSksrp7K-71" value="&lt;font style=&quot;font-size: 20px;&quot;&gt;True&lt;/font&gt;" style="edgeLabel;html=1;align=center;verticalAlign=middle;resizable=0;points=[];" vertex="1" connectable="0" parent="FHojmxslOPqscSksrp7K-70">
          <mxGeometry x="-0.0144" y="5" relative="1" as="geometry">
            <mxPoint x="-5" y="-9" as="offset" />
          </mxGeometry>
        </mxCell>
        <mxCell id="FHojmxslOPqscSksrp7K-72" value="" style="endArrow=classic;html=1;rounded=0;exitX=0.5;exitY=1;exitDx=0;exitDy=0;" edge="1" parent="1" source="FHojmxslOPqscSksrp7K-69">
          <mxGeometry width="50" height="50" relative="1" as="geometry">
            <mxPoint x="1120" y="-380" as="sourcePoint" />
            <mxPoint x="1290" y="-200" as="targetPoint" />
          </mxGeometry>
        </mxCell>
        <mxCell id="FHojmxslOPqscSksrp7K-73" value="&lt;font style=&quot;font-size: 20px;&quot;&gt;False&lt;/font&gt;" style="edgeLabel;html=1;align=center;verticalAlign=middle;resizable=0;points=[];" vertex="1" connectable="0" parent="FHojmxslOPqscSksrp7K-72">
          <mxGeometry x="0.0697" y="-1" relative="1" as="geometry">
            <mxPoint y="-8" as="offset" />
          </mxGeometry>
        </mxCell>
        <mxCell id="FHojmxslOPqscSksrp7K-74" value="CD5" style="text;html=1;strokeColor=none;fillColor=none;align=center;verticalAlign=middle;whiteSpace=wrap;rounded=0;" vertex="1" parent="1">
          <mxGeometry x="1030" y="-60" width="60" height="30" as="geometry" />
        </mxCell>
        <mxCell id="FHojmxslOPqscSksrp7K-69" value="&lt;font style=&quot;font-size: 20px;&quot;&gt;if(DD8==1 &amp;amp;&amp;amp; CD5 == 0 &amp;amp;&amp;amp; CCLR# == 1)&lt;/font&gt;" style="rhombus;whiteSpace=wrap;html=1;" vertex="1" parent="1">
          <mxGeometry x="890" y="-440" width="470" height="190" as="geometry" />
        </mxCell>
        <mxCell id="FHojmxslOPqscSksrp7K-77" value="&lt;font style=&quot;font-size: 20px;&quot;&gt;如果Dfault結束且舊資料也Clear了&lt;/font&gt;" style="text;html=1;strokeColor=none;fillColor=none;align=center;verticalAlign=middle;whiteSpace=wrap;rounded=0;" vertex="1" parent="1">
          <mxGeometry x="440" y="-400" width="320" height="50" as="geometry" />
        </mxCell>
        <mxCell id="FHojmxslOPqscSksrp7K-80" value="如果已經Default且還沒Clear完舊資料且計數器已重置完成" style="text;html=1;strokeColor=none;fillColor=none;align=center;verticalAlign=middle;whiteSpace=wrap;rounded=0;fontSize=16;" vertex="1" parent="1">
          <mxGeometry x="1020" y="-385" width="214.5" height="20" as="geometry" />
        </mxCell>
        <mxCell id="FHojmxslOPqscSksrp7K-81" value="" style="endArrow=classic;html=1;rounded=0;entryX=0.5;entryY=0;entryDx=0;entryDy=0;" edge="1" parent="1" target="FHojmxslOPqscSksrp7K-65">
          <mxGeometry width="50" height="50" relative="1" as="geometry">
            <mxPoint x="960" y="-200" as="sourcePoint" />
            <mxPoint x="1030" y="-130" as="targetPoint" />
            <Array as="points">
              <mxPoint x="960" y="-120" />
              <mxPoint x="1125" y="-120" />
            </Array>
          </mxGeometry>
        </mxCell>
        <mxCell id="FHojmxslOPqscSksrp7K-82" value="" style="endArrow=none;html=1;rounded=0;" edge="1" parent="1">
          <mxGeometry width="50" height="50" relative="1" as="geometry">
            <mxPoint x="1120" y="-120" as="sourcePoint" />
            <mxPoint x="1290" y="-200" as="targetPoint" />
            <Array as="points">
              <mxPoint x="1290" y="-120" />
            </Array>
          </mxGeometry>
        </mxCell>
        <mxCell id="FHojmxslOPqscSksrp7K-83" value="&lt;span style=&quot;font-size: 20px;&quot;&gt;Active&lt;/span&gt;" style="edgeLabel;html=1;align=center;verticalAlign=middle;resizable=0;points=[];" vertex="1" connectable="0" parent="1">
          <mxGeometry x="960.0029625995688" y="-160.00424937878864" as="geometry" />
        </mxCell>
        <mxCell id="FHojmxslOPqscSksrp7K-84" value="&lt;span style=&quot;font-size: 20px;&quot;&gt;Inactive&lt;/span&gt;" style="edgeLabel;html=1;align=center;verticalAlign=middle;resizable=0;points=[];" vertex="1" connectable="0" parent="1">
          <mxGeometry x="1290.002962599569" y="-160.00424937878864" as="geometry" />
        </mxCell>
        <mxCell id="FHojmxslOPqscSksrp7K-86" value="DD8" style="text;html=1;strokeColor=none;fillColor=none;align=center;verticalAlign=middle;whiteSpace=wrap;rounded=0;" vertex="1" parent="1">
          <mxGeometry x="175" y="110" width="60" height="30" as="geometry" />
        </mxCell>
        <mxCell id="FHojmxslOPqscSksrp7K-87" value="&lt;font style=&quot;font-size: 12px;&quot;&gt;CCKEN#&lt;/font&gt;" style="text;html=1;strokeColor=none;fillColor=none;align=center;verticalAlign=middle;whiteSpace=wrap;rounded=0;" vertex="1" parent="1">
          <mxGeometry x="120" y="135" width="60" height="30" as="geometry" />
        </mxCell>
        <mxCell id="FHojmxslOPqscSksrp7K-88" value="" style="endArrow=classic;html=1;rounded=0;entryX=0;entryY=0.5;entryDx=0;entryDy=0;" edge="1" parent="1" target="FHojmxslOPqscSksrp7K-87">
          <mxGeometry width="50" height="50" relative="1" as="geometry">
            <mxPoint x="70" y="180" as="sourcePoint" />
            <mxPoint x="120" y="70" as="targetPoint" />
            <Array as="points">
              <mxPoint x="70" y="150" />
            </Array>
          </mxGeometry>
        </mxCell>
        <mxCell id="FHojmxslOPqscSksrp7K-89" value="&lt;font style=&quot;font-size: 12px;&quot;&gt;CCKEN#&lt;/font&gt;" style="text;html=1;strokeColor=none;fillColor=none;align=center;verticalAlign=middle;whiteSpace=wrap;rounded=0;" vertex="1" parent="1">
          <mxGeometry x="1150" y="-80" width="60" height="30" as="geometry" />
        </mxCell>
        <mxCell id="FHojmxslOPqscSksrp7K-90" value="&lt;font style=&quot;font-size: 12px;&quot;&gt;OE#&lt;/font&gt;" style="text;html=1;strokeColor=none;fillColor=none;align=center;verticalAlign=middle;whiteSpace=wrap;rounded=0;" vertex="1" parent="1">
          <mxGeometry x="1095" y="-80" width="60" height="30" as="geometry" />
        </mxCell>
        <mxCell id="FHojmxslOPqscSksrp7K-92" value="" style="endArrow=classic;html=1;rounded=0;entryX=0.5;entryY=0;entryDx=0;entryDy=0;" edge="1" parent="1" target="FHojmxslOPqscSksrp7K-89">
          <mxGeometry width="50" height="50" relative="1" as="geometry">
            <mxPoint x="1180" y="-120" as="sourcePoint" />
            <mxPoint x="1070" y="-130" as="targetPoint" />
          </mxGeometry>
        </mxCell>
        <mxCell id="FHojmxslOPqscSksrp7K-93" value="&lt;font style=&quot;font-size: 16px;&quot;&gt;如果(CD5==0 &amp;amp;&amp;amp; reset==1)，代表正要或正在Clear舊資料&lt;/font&gt;" style="text;html=1;strokeColor=none;fillColor=none;align=left;verticalAlign=middle;whiteSpace=wrap;rounded=0;" vertex="1" parent="1">
          <mxGeometry x="830" y="-50" width="220" height="70" as="geometry" />
        </mxCell>
        <mxCell id="FHojmxslOPqscSksrp7K-94" value="&lt;font style=&quot;font-size: 12px;&quot;&gt;clk&lt;/font&gt;" style="text;html=1;strokeColor=none;fillColor=none;align=center;verticalAlign=middle;whiteSpace=wrap;rounded=0;" vertex="1" parent="1">
          <mxGeometry x="1170" y="-60" width="60" height="30" as="geometry" />
        </mxCell>
        <mxCell id="FHojmxslOPqscSksrp7K-112" style="edgeStyle=orthogonalEdgeStyle;rounded=0;orthogonalLoop=1;jettySize=auto;html=1;exitX=0.5;exitY=1;exitDx=0;exitDy=0;entryX=1;entryY=0.5;entryDx=0;entryDy=0;" edge="1" parent="1" source="FHojmxslOPqscSksrp7K-113" target="FHojmxslOPqscSksrp7K-146">
          <mxGeometry relative="1" as="geometry">
            <mxPoint x="1020" y="550" as="targetPoint" />
          </mxGeometry>
        </mxCell>
        <mxCell id="FHojmxslOPqscSksrp7K-151" value="&lt;font style=&quot;font-size: 16px;&quot;&gt;4bit&lt;/font&gt;" style="edgeLabel;html=1;align=center;verticalAlign=middle;resizable=0;points=[];" vertex="1" connectable="0" parent="FHojmxslOPqscSksrp7K-112">
          <mxGeometry x="-0.4667" relative="1" as="geometry">
            <mxPoint as="offset" />
          </mxGeometry>
        </mxCell>
        <mxCell id="FHojmxslOPqscSksrp7K-96" value="&lt;span style=&quot;font-size: 20px;&quot;&gt;Current position&lt;br&gt;&lt;/span&gt;" style="rounded=0;whiteSpace=wrap;html=1;" vertex="1" parent="1">
          <mxGeometry x="1040" y="180" width="170" height="140" as="geometry" />
        </mxCell>
        <mxCell id="FHojmxslOPqscSksrp7K-97" value="update_clk" style="text;html=1;strokeColor=none;fillColor=none;align=center;verticalAlign=middle;whiteSpace=wrap;rounded=0;" vertex="1" parent="1">
          <mxGeometry x="1150" y="180" width="60" height="30" as="geometry" />
        </mxCell>
        <mxCell id="FHojmxslOPqscSksrp7K-104" style="edgeStyle=orthogonalEdgeStyle;rounded=0;orthogonalLoop=1;jettySize=auto;html=1;exitX=0;exitY=0.5;exitDx=0;exitDy=0;" edge="1" parent="1" source="FHojmxslOPqscSksrp7K-98" target="FHojmxslOPqscSksrp7K-97">
          <mxGeometry relative="1" as="geometry" />
        </mxCell>
        <mxCell id="FHojmxslOPqscSksrp7K-128" style="edgeStyle=orthogonalEdgeStyle;rounded=0;orthogonalLoop=1;jettySize=auto;html=1;exitX=0;exitY=0.5;exitDx=0;exitDy=0;entryX=1;entryY=0.5;entryDx=0;entryDy=0;" edge="1" parent="1" source="FHojmxslOPqscSksrp7K-98" target="FHojmxslOPqscSksrp7K-69">
          <mxGeometry relative="1" as="geometry">
            <Array as="points">
              <mxPoint x="1290" y="195" />
              <mxPoint x="1290" y="80" />
              <mxPoint x="1360" y="80" />
            </Array>
          </mxGeometry>
        </mxCell>
        <mxCell id="FHojmxslOPqscSksrp7K-98" value="&lt;span style=&quot;font-size: 20px;&quot;&gt;除頻器(變16Hz)&lt;br&gt;&lt;/span&gt;" style="rounded=0;whiteSpace=wrap;html=1;" vertex="1" parent="1">
          <mxGeometry x="1310" y="125" width="170" height="140" as="geometry" />
        </mxCell>
        <mxCell id="FHojmxslOPqscSksrp7K-103" value="" style="endArrow=classic;html=1;rounded=0;entryX=0.5;entryY=0;entryDx=0;entryDy=0;" edge="1" parent="1" target="FHojmxslOPqscSksrp7K-98">
          <mxGeometry width="50" height="50" relative="1" as="geometry">
            <mxPoint x="1390" y="-100" as="sourcePoint" />
            <mxPoint x="1480" y="10" as="targetPoint" />
            <Array as="points">
              <mxPoint x="1450" y="-100" />
              <mxPoint x="1450" />
              <mxPoint x="1395" />
            </Array>
          </mxGeometry>
        </mxCell>
        <mxCell id="FHojmxslOPqscSksrp7K-105" value="CCLR#" style="text;html=1;strokeColor=none;fillColor=none;align=center;verticalAlign=middle;whiteSpace=wrap;rounded=0;" vertex="1" parent="1">
          <mxGeometry x="1155" y="-20" width="60" height="30" as="geometry" />
        </mxCell>
        <mxCell id="FHojmxslOPqscSksrp7K-107" style="edgeStyle=orthogonalEdgeStyle;rounded=0;orthogonalLoop=1;jettySize=auto;html=1;exitX=0;exitY=0.5;exitDx=0;exitDy=0;entryX=1.006;entryY=0.55;entryDx=0;entryDy=0;entryPerimeter=0;" edge="1" parent="1" source="FHojmxslOPqscSksrp7K-98" target="FHojmxslOPqscSksrp7K-65">
          <mxGeometry relative="1" as="geometry" />
        </mxCell>
        <mxCell id="FHojmxslOPqscSksrp7K-108" style="edgeStyle=orthogonalEdgeStyle;rounded=0;orthogonalLoop=1;jettySize=auto;html=1;exitX=0;exitY=0.5;exitDx=0;exitDy=0;entryX=0.941;entryY=0.554;entryDx=0;entryDy=0;entryPerimeter=0;" edge="1" parent="1" source="FHojmxslOPqscSksrp7K-98" target="FHojmxslOPqscSksrp7K-5">
          <mxGeometry relative="1" as="geometry">
            <Array as="points">
              <mxPoint x="1260" y="195" />
              <mxPoint x="1260" y="80" />
              <mxPoint x="814" y="80" />
            </Array>
          </mxGeometry>
        </mxCell>
        <mxCell id="FHojmxslOPqscSksrp7K-109" value="&lt;font style=&quot;font-size: 16px;&quot;&gt;計數器更新時也代表目前這一行得數值得重置(Clear)&lt;/font&gt;" style="text;html=1;strokeColor=none;fillColor=none;align=left;verticalAlign=middle;whiteSpace=wrap;rounded=0;" vertex="1" parent="1">
          <mxGeometry x="1030" y="115" width="220" height="70" as="geometry" />
        </mxCell>
        <mxCell id="FHojmxslOPqscSksrp7K-113" value="A_colume" style="text;html=1;strokeColor=none;fillColor=none;align=center;verticalAlign=middle;whiteSpace=wrap;rounded=0;" vertex="1" parent="1">
          <mxGeometry x="1060" y="290" width="60" height="30" as="geometry" />
        </mxCell>
        <mxCell id="FHojmxslOPqscSksrp7K-125" value="&lt;font style=&quot;font-size: 12px;&quot;&gt;OE#&lt;/font&gt;" style="text;html=1;strokeColor=none;fillColor=none;align=center;verticalAlign=middle;whiteSpace=wrap;rounded=0;" vertex="1" parent="1">
          <mxGeometry x="1150" y="260" width="60" height="30" as="geometry" />
        </mxCell>
        <mxCell id="FHojmxslOPqscSksrp7K-126" value="&lt;font style=&quot;font-size: 12px;&quot;&gt;CCKEN#&lt;/font&gt;" style="text;html=1;strokeColor=none;fillColor=none;align=center;verticalAlign=middle;whiteSpace=wrap;rounded=0;" vertex="1" parent="1">
          <mxGeometry x="1150" y="290" width="60" height="30" as="geometry" />
        </mxCell>
        <mxCell id="FHojmxslOPqscSksrp7K-127" value="" style="endArrow=classic;html=1;rounded=0;entryX=0;entryY=0.5;entryDx=0;entryDy=0;" edge="1" parent="1" target="FHojmxslOPqscSksrp7K-69">
          <mxGeometry width="50" height="50" relative="1" as="geometry">
            <mxPoint x="840" y="-250" as="sourcePoint" />
            <mxPoint x="970" y="-250" as="targetPoint" />
            <Array as="points">
              <mxPoint x="890" y="-250" />
            </Array>
          </mxGeometry>
        </mxCell>
        <mxCell id="FHojmxslOPqscSksrp7K-130" value="&lt;font style=&quot;font-size: 20px;&quot;&gt;if(DD8==0)&lt;/font&gt;" style="rhombus;whiteSpace=wrap;html=1;" vertex="1" parent="1">
          <mxGeometry x="1540" y="150" width="150" height="90" as="geometry" />
        </mxCell>
        <mxCell id="FHojmxslOPqscSksrp7K-131" value="" style="endArrow=classic;html=1;rounded=0;entryX=0.5;entryY=0;entryDx=0;entryDy=0;" edge="1" parent="1" target="FHojmxslOPqscSksrp7K-130">
          <mxGeometry width="50" height="50" relative="1" as="geometry">
            <mxPoint x="1120" y="-520" as="sourcePoint" />
            <mxPoint x="1430" y="-250" as="targetPoint" />
            <Array as="points">
              <mxPoint x="1615" y="-520" />
            </Array>
          </mxGeometry>
        </mxCell>
        <mxCell id="FHojmxslOPqscSksrp7K-132" value="" style="endArrow=classic;html=1;rounded=0;exitX=0.5;exitY=1;exitDx=0;exitDy=0;" edge="1" parent="1" source="FHojmxslOPqscSksrp7K-130">
          <mxGeometry width="50" height="50" relative="1" as="geometry">
            <mxPoint x="1625" y="250" as="sourcePoint" />
            <mxPoint x="1520" y="320" as="targetPoint" />
          </mxGeometry>
        </mxCell>
        <mxCell id="FHojmxslOPqscSksrp7K-133" value="&lt;font style=&quot;font-size: 20px;&quot;&gt;True&lt;/font&gt;" style="edgeLabel;html=1;align=center;verticalAlign=middle;resizable=0;points=[];" vertex="1" connectable="0" parent="FHojmxslOPqscSksrp7K-132">
          <mxGeometry x="-0.0144" y="5" relative="1" as="geometry">
            <mxPoint y="-14" as="offset" />
          </mxGeometry>
        </mxCell>
        <mxCell id="FHojmxslOPqscSksrp7K-134" value="" style="endArrow=classic;html=1;rounded=0;exitX=0.5;exitY=1;exitDx=0;exitDy=0;" edge="1" parent="1" source="FHojmxslOPqscSksrp7K-130">
          <mxGeometry width="50" height="50" relative="1" as="geometry">
            <mxPoint x="1620" y="250" as="sourcePoint" />
            <mxPoint x="1710" y="320" as="targetPoint" />
          </mxGeometry>
        </mxCell>
        <mxCell id="FHojmxslOPqscSksrp7K-135" value="&lt;font style=&quot;font-size: 20px;&quot;&gt;False&lt;/font&gt;" style="edgeLabel;html=1;align=center;verticalAlign=middle;resizable=0;points=[];" vertex="1" connectable="0" parent="FHojmxslOPqscSksrp7K-134">
          <mxGeometry x="0.0697" y="-1" relative="1" as="geometry">
            <mxPoint x="-6" y="-12" as="offset" />
          </mxGeometry>
        </mxCell>
        <mxCell id="FHojmxslOPqscSksrp7K-136" value="" style="endArrow=classic;html=1;rounded=0;entryX=1;entryY=0.5;entryDx=0;entryDy=0;" edge="1" parent="1" target="FHojmxslOPqscSksrp7K-126">
          <mxGeometry width="50" height="50" relative="1" as="geometry">
            <mxPoint x="1710" y="410" as="sourcePoint" />
            <mxPoint x="1430" y="250" as="targetPoint" />
            <Array as="points">
              <mxPoint x="1290" y="410" />
              <mxPoint x="1290" y="305" />
            </Array>
          </mxGeometry>
        </mxCell>
        <mxCell id="FHojmxslOPqscSksrp7K-137" value="" style="endArrow=none;html=1;rounded=0;" edge="1" parent="1">
          <mxGeometry width="50" height="50" relative="1" as="geometry">
            <mxPoint x="1520" y="320" as="sourcePoint" />
            <mxPoint x="1520" y="410" as="targetPoint" />
          </mxGeometry>
        </mxCell>
        <mxCell id="FHojmxslOPqscSksrp7K-138" value="" style="endArrow=none;html=1;rounded=0;" edge="1" parent="1">
          <mxGeometry width="50" height="50" relative="1" as="geometry">
            <mxPoint x="1710" y="320" as="sourcePoint" />
            <mxPoint x="1710" y="410" as="targetPoint" />
          </mxGeometry>
        </mxCell>
        <mxCell id="FHojmxslOPqscSksrp7K-141" value="" style="endArrow=classic;html=1;rounded=0;entryX=1;entryY=0.5;entryDx=0;entryDy=0;" edge="1" parent="1" target="FHojmxslOPqscSksrp7K-125">
          <mxGeometry width="50" height="50" relative="1" as="geometry">
            <mxPoint x="1290" y="310" as="sourcePoint" />
            <mxPoint x="1430" y="250" as="targetPoint" />
            <Array as="points">
              <mxPoint x="1290" y="275" />
            </Array>
          </mxGeometry>
        </mxCell>
        <mxCell id="FHojmxslOPqscSksrp7K-142" value="&lt;font style=&quot;font-size: 20px;&quot;&gt;Active&lt;/font&gt;" style="edgeLabel;html=1;align=center;verticalAlign=middle;resizable=0;points=[];" vertex="1" connectable="0" parent="1">
          <mxGeometry x="1520" y="360" as="geometry" />
        </mxCell>
        <mxCell id="FHojmxslOPqscSksrp7K-143" value="&lt;font style=&quot;font-size: 20px;&quot;&gt;Inactive&lt;/font&gt;" style="edgeLabel;html=1;align=center;verticalAlign=middle;resizable=0;points=[];" vertex="1" connectable="0" parent="1">
          <mxGeometry x="1710" y="360" as="geometry" />
        </mxCell>
        <mxCell id="FHojmxslOPqscSksrp7K-168" style="edgeStyle=orthogonalEdgeStyle;rounded=0;orthogonalLoop=1;jettySize=auto;html=1;exitX=0.5;exitY=1;exitDx=0;exitDy=0;entryX=1;entryY=0.5;entryDx=0;entryDy=0;" edge="1" parent="1" source="FHojmxslOPqscSksrp7K-146" target="FHojmxslOPqscSksrp7K-166">
          <mxGeometry relative="1" as="geometry" />
        </mxCell>
        <mxCell id="FHojmxslOPqscSksrp7K-169" value="&lt;font style=&quot;font-size: 20px;&quot;&gt;4bit&lt;/font&gt;" style="edgeLabel;html=1;align=center;verticalAlign=middle;resizable=0;points=[];" vertex="1" connectable="0" parent="FHojmxslOPqscSksrp7K-168">
          <mxGeometry x="-0.3486" y="-4" relative="1" as="geometry">
            <mxPoint x="4" y="-17" as="offset" />
          </mxGeometry>
        </mxCell>
        <mxCell id="FHojmxslOPqscSksrp7K-146" value="&lt;font style=&quot;font-size: 20px;&quot;&gt;Adder&lt;/font&gt;" style="rounded=0;whiteSpace=wrap;html=1;" vertex="1" parent="1">
          <mxGeometry x="870" y="380" width="200" height="130" as="geometry" />
        </mxCell>
        <mxCell id="FHojmxslOPqscSksrp7K-147" value="CD4" style="text;html=1;strokeColor=none;fillColor=none;align=center;verticalAlign=middle;whiteSpace=wrap;rounded=0;" vertex="1" parent="1">
          <mxGeometry x="1095" y="30" width="60" height="30" as="geometry" />
        </mxCell>
        <mxCell id="FHojmxslOPqscSksrp7K-149" value="加數" style="text;html=1;strokeColor=none;fillColor=none;align=center;verticalAlign=middle;whiteSpace=wrap;rounded=0;" vertex="1" parent="1">
          <mxGeometry x="1020" y="430" width="60" height="30" as="geometry" />
        </mxCell>
        <mxCell id="FHojmxslOPqscSksrp7K-150" value="被加數" style="text;html=1;strokeColor=none;fillColor=none;align=center;verticalAlign=middle;whiteSpace=wrap;rounded=0;" vertex="1" parent="1">
          <mxGeometry x="940" y="380" width="60" height="30" as="geometry" />
        </mxCell>
        <mxCell id="FHojmxslOPqscSksrp7K-156" value="A_raw" style="text;html=1;strokeColor=none;fillColor=none;align=center;verticalAlign=middle;whiteSpace=wrap;rounded=0;" vertex="1" parent="1">
          <mxGeometry x="1035" y="10" width="60" height="30" as="geometry" />
        </mxCell>
        <mxCell id="FHojmxslOPqscSksrp7K-158" value="輸出" style="text;html=1;strokeColor=none;fillColor=none;align=center;verticalAlign=middle;whiteSpace=wrap;rounded=0;" vertex="1" parent="1">
          <mxGeometry x="940" y="480" width="60" height="30" as="geometry" />
        </mxCell>
        <mxCell id="FHojmxslOPqscSksrp7K-160" value="&lt;font style=&quot;font-size: 12px;&quot;&gt;address[3:0]&lt;/font&gt;" style="text;html=1;strokeColor=none;fillColor=none;align=center;verticalAlign=middle;whiteSpace=wrap;rounded=0;" vertex="1" parent="1">
          <mxGeometry x="570" y="320" width="60" height="30" as="geometry" />
        </mxCell>
        <mxCell id="FHojmxslOPqscSksrp7K-161" value="" style="endArrow=classic;html=1;rounded=0;entryX=0.5;entryY=1;entryDx=0;entryDy=0;" edge="1" parent="1" target="FHojmxslOPqscSksrp7K-1">
          <mxGeometry width="50" height="50" relative="1" as="geometry">
            <mxPoint x="510" y="520" as="sourcePoint" />
            <mxPoint x="650" y="140" as="targetPoint" />
            <Array as="points">
              <mxPoint x="600" y="520" />
            </Array>
          </mxGeometry>
        </mxCell>
        <mxCell id="FHojmxslOPqscSksrp7K-166" value="&lt;font style=&quot;font-size: 20px;&quot;&gt;if(WE# == 0)&lt;/font&gt;" style="rhombus;whiteSpace=wrap;html=1;" vertex="1" parent="1">
          <mxGeometry x="720" y="530" width="150" height="110" as="geometry" />
        </mxCell>
        <mxCell id="FHojmxslOPqscSksrp7K-171" value="" style="endArrow=classic;html=1;rounded=0;exitX=0.5;exitY=1;exitDx=0;exitDy=0;" edge="1" parent="1" source="FHojmxslOPqscSksrp7K-166">
          <mxGeometry width="50" height="50" relative="1" as="geometry">
            <mxPoint x="760" y="670" as="sourcePoint" />
            <mxPoint x="710" y="720" as="targetPoint" />
          </mxGeometry>
        </mxCell>
        <mxCell id="FHojmxslOPqscSksrp7K-172" value="&lt;font style=&quot;font-size: 20px;&quot;&gt;True&lt;/font&gt;" style="edgeLabel;html=1;align=center;verticalAlign=middle;resizable=0;points=[];" vertex="1" connectable="0" parent="FHojmxslOPqscSksrp7K-171">
          <mxGeometry x="-0.2693" relative="1" as="geometry">
            <mxPoint as="offset" />
          </mxGeometry>
        </mxCell>
        <mxCell id="FHojmxslOPqscSksrp7K-173" value="" style="endArrow=classic;html=1;rounded=0;exitX=0.5;exitY=1;exitDx=0;exitDy=0;" edge="1" parent="1" source="FHojmxslOPqscSksrp7K-166">
          <mxGeometry width="50" height="50" relative="1" as="geometry">
            <mxPoint x="827" y="670" as="sourcePoint" />
            <mxPoint x="880" y="720" as="targetPoint" />
          </mxGeometry>
        </mxCell>
        <mxCell id="FHojmxslOPqscSksrp7K-174" value="&lt;font style=&quot;font-size: 20px;&quot;&gt;False&lt;br&gt;&lt;/font&gt;" style="edgeLabel;html=1;align=center;verticalAlign=middle;resizable=0;points=[];" vertex="1" connectable="0" parent="FHojmxslOPqscSksrp7K-173">
          <mxGeometry x="-0.2065" y="2" relative="1" as="geometry">
            <mxPoint as="offset" />
          </mxGeometry>
        </mxCell>
        <mxCell id="FHojmxslOPqscSksrp7K-176" value="" style="endArrow=classic;html=1;rounded=0;entryX=0.25;entryY=1;entryDx=0;entryDy=0;" edge="1" parent="1" target="FHojmxslOPqscSksrp7K-1">
          <mxGeometry width="50" height="50" relative="1" as="geometry">
            <mxPoint x="880" y="800" as="sourcePoint" />
            <mxPoint x="650" y="540" as="targetPoint" />
            <Array as="points">
              <mxPoint x="515" y="800" />
            </Array>
          </mxGeometry>
        </mxCell>
        <mxCell id="FHojmxslOPqscSksrp7K-178" value="&lt;span style=&quot;font-size: 20px;&quot;&gt;Hi-Z&lt;/span&gt;" style="edgeLabel;html=1;align=center;verticalAlign=middle;resizable=0;points=[];" vertex="1" connectable="0" parent="1">
          <mxGeometry x="889.9952211959389" y="700.0039615087487" as="geometry">
            <mxPoint x="-9" y="58" as="offset" />
          </mxGeometry>
        </mxCell>
        <mxCell id="FHojmxslOPqscSksrp7K-179" value="" style="endArrow=none;html=1;rounded=0;" edge="1" parent="1">
          <mxGeometry width="50" height="50" relative="1" as="geometry">
            <mxPoint x="710" y="720" as="sourcePoint" />
            <mxPoint x="710" y="800" as="targetPoint" />
          </mxGeometry>
        </mxCell>
        <mxCell id="FHojmxslOPqscSksrp7K-180" value="&lt;font style=&quot;font-size: 20px;&quot;&gt;8bit address&lt;/font&gt;" style="edgeLabel;html=1;align=center;verticalAlign=middle;resizable=0;points=[];" vertex="1" connectable="0" parent="1">
          <mxGeometry x="719.9952211959389" y="700.0039615087487" as="geometry">
            <mxPoint x="-9" y="58" as="offset" />
          </mxGeometry>
        </mxCell>
        <mxCell id="FHojmxslOPqscSksrp7K-181" value="" style="endArrow=classic;html=1;rounded=0;entryX=0.5;entryY=1;entryDx=0;entryDy=0;" edge="1" parent="1" target="FHojmxslOPqscSksrp7K-1">
          <mxGeometry width="50" height="50" relative="1" as="geometry">
            <mxPoint x="600" y="800" as="sourcePoint" />
            <mxPoint x="790" y="540" as="targetPoint" />
          </mxGeometry>
        </mxCell>
        <mxCell id="FHojmxslOPqscSksrp7K-184" value="&lt;font style=&quot;font-size: 20px;&quot;&gt;&lt;font style=&quot;font-size: 20px;&quot;&gt;if !&lt;/font&gt;(DD8==1 &amp;amp;&amp;amp; !(CD5==0 &amp;amp;&amp;amp; CCLR#==1))&lt;/font&gt;" style="rhombus;whiteSpace=wrap;html=1;" vertex="1" parent="1">
          <mxGeometry x="-395" y="760" width="480" height="220" as="geometry" />
        </mxCell>
        <mxCell id="FHojmxslOPqscSksrp7K-186" value="" style="endArrow=classic;html=1;rounded=0;exitX=0.5;exitY=1;exitDx=0;exitDy=0;" edge="1" parent="1" source="FHojmxslOPqscSksrp7K-184">
          <mxGeometry width="50" height="50" relative="1" as="geometry">
            <mxPoint x="-155" y="980" as="sourcePoint" />
            <mxPoint x="-240" y="1060" as="targetPoint" />
          </mxGeometry>
        </mxCell>
        <mxCell id="FHojmxslOPqscSksrp7K-187" value="&lt;font style=&quot;font-size: 20px;&quot;&gt;True&lt;/font&gt;" style="edgeLabel;html=1;align=center;verticalAlign=middle;resizable=0;points=[];" vertex="1" connectable="0" parent="FHojmxslOPqscSksrp7K-186">
          <mxGeometry x="-0.2693" relative="1" as="geometry">
            <mxPoint as="offset" />
          </mxGeometry>
        </mxCell>
        <mxCell id="FHojmxslOPqscSksrp7K-188" value="" style="endArrow=classic;html=1;rounded=0;exitX=0.5;exitY=1;exitDx=0;exitDy=0;" edge="1" parent="1" source="FHojmxslOPqscSksrp7K-184">
          <mxGeometry width="50" height="50" relative="1" as="geometry">
            <mxPoint x="-130" y="990" as="sourcePoint" />
            <mxPoint x="-70" y="1060" as="targetPoint" />
          </mxGeometry>
        </mxCell>
        <mxCell id="FHojmxslOPqscSksrp7K-189" value="&lt;font style=&quot;font-size: 20px;&quot;&gt;False&lt;br&gt;&lt;/font&gt;" style="edgeLabel;html=1;align=center;verticalAlign=middle;resizable=0;points=[];" vertex="1" connectable="0" parent="FHojmxslOPqscSksrp7K-188">
          <mxGeometry x="-0.2065" y="2" relative="1" as="geometry">
            <mxPoint as="offset" />
          </mxGeometry>
        </mxCell>
        <mxCell id="FHojmxslOPqscSksrp7K-190" value="" style="endArrow=classic;html=1;rounded=0;entryX=0;entryY=0.5;entryDx=0;entryDy=0;" edge="1" parent="1" target="FHojmxslOPqscSksrp7K-1">
          <mxGeometry width="50" height="50" relative="1" as="geometry">
            <mxPoint x="-240" y="1120" as="sourcePoint" />
            <mxPoint x="10" y="810" as="targetPoint" />
            <Array as="points">
              <mxPoint x="360" y="1120" />
              <mxPoint x="360" y="220" />
            </Array>
          </mxGeometry>
        </mxCell>
        <mxCell id="FHojmxslOPqscSksrp7K-192" value="" style="endArrow=none;html=1;rounded=0;" edge="1" parent="1">
          <mxGeometry width="50" height="50" relative="1" as="geometry">
            <mxPoint x="-240" y="1060" as="sourcePoint" />
            <mxPoint x="-240" y="1120" as="targetPoint" />
          </mxGeometry>
        </mxCell>
        <mxCell id="FHojmxslOPqscSksrp7K-195" value="&lt;span style=&quot;font-size: 20px;&quot;&gt;output&lt;/span&gt;" style="edgeLabel;html=1;align=center;verticalAlign=middle;resizable=0;points=[];" vertex="1" connectable="0" parent="1">
          <mxGeometry x="-230.00477880406106" y="1030.0039615087487" as="geometry">
            <mxPoint x="-9" y="58" as="offset" />
          </mxGeometry>
        </mxCell>
        <mxCell id="FHojmxslOPqscSksrp7K-196" value="WE#" style="text;html=1;strokeColor=none;fillColor=none;align=center;verticalAlign=middle;whiteSpace=wrap;rounded=0;" vertex="1" parent="1">
          <mxGeometry x="430" y="205" width="60" height="30" as="geometry" />
        </mxCell>
        <mxCell id="FHojmxslOPqscSksrp7K-200" style="edgeStyle=orthogonalEdgeStyle;rounded=0;orthogonalLoop=1;jettySize=auto;html=1;exitX=1;exitY=0.5;exitDx=0;exitDy=0;" edge="1" parent="1" source="FHojmxslOPqscSksrp7K-197">
          <mxGeometry relative="1" as="geometry">
            <mxPoint x="360" y="1020" as="targetPoint" />
          </mxGeometry>
        </mxCell>
        <mxCell id="FHojmxslOPqscSksrp7K-197" value="&lt;span style=&quot;font-size: 20px;&quot;&gt;除頻器(變512Hz)&lt;br&gt;&lt;/span&gt;" style="rounded=0;whiteSpace=wrap;html=1;" vertex="1" parent="1">
          <mxGeometry x="20" y="950" width="170" height="140" as="geometry" />
        </mxCell>
        <mxCell id="FHojmxslOPqscSksrp7K-198" value="" style="endArrow=classic;html=1;rounded=0;entryX=0;entryY=0.5;entryDx=0;entryDy=0;" edge="1" parent="1" target="FHojmxslOPqscSksrp7K-197">
          <mxGeometry width="50" height="50" relative="1" as="geometry">
            <mxPoint x="-70" y="1060" as="sourcePoint" />
            <mxPoint x="20" y="710" as="targetPoint" />
            <Array as="points">
              <mxPoint x="-20" y="1060" />
              <mxPoint x="-20" y="1020" />
            </Array>
          </mxGeometry>
        </mxCell>
      </root>
    </mxGraphModel>
  </diagram>
</mxfile>
